<mxfile host="app.diagrams.net" modified="2023-06-06T14:52:04.150Z" agent="Mozilla/5.0 (Windows NT 10.0; Win64; x64) AppleWebKit/537.36 (KHTML, like Gecko) Chrome/113.0.0.0 Safari/537.36 Edg/113.0.1774.42" etag="zAd73tAXfMch8K6qBgCq" version="21.3.7" type="github">
  <diagram id="C5RBs43oDa-KdzZeNtuy" name="Page-1">
    <mxGraphModel dx="1379" dy="764" grid="1" gridSize="10" guides="1" tooltips="1" connect="1" arrows="1" fold="1" page="1" pageScale="1" pageWidth="827" pageHeight="1169" math="0" shadow="0">
      <root>
        <mxCell id="WIyWlLk6GJQsqaUBKTNV-0" />
        <mxCell id="WIyWlLk6GJQsqaUBKTNV-1" parent="WIyWlLk6GJQsqaUBKTNV-0" />
        <mxCell id="zkfFHV4jXpPFQw0GAbJ--0" value="BankAccountType" style="swimlane;fontStyle=2;align=center;verticalAlign=top;childLayout=stackLayout;horizontal=1;startSize=26;horizontalStack=0;resizeParent=1;resizeLast=0;collapsible=1;marginBottom=0;rounded=0;shadow=0;strokeWidth=1;" parent="WIyWlLk6GJQsqaUBKTNV-1" vertex="1">
          <mxGeometry x="100" y="10" width="160" height="150" as="geometry">
            <mxRectangle x="230" y="140" width="160" height="26" as="alternateBounds" />
          </mxGeometry>
        </mxCell>
        <mxCell id="zkfFHV4jXpPFQw0GAbJ--1" value="-String type" style="text;align=left;verticalAlign=top;spacingLeft=4;spacingRight=4;overflow=hidden;rotatable=0;points=[[0,0.5],[1,0.5]];portConstraint=eastwest;" parent="zkfFHV4jXpPFQw0GAbJ--0" vertex="1">
          <mxGeometry y="26" width="160" height="26" as="geometry" />
        </mxCell>
        <mxCell id="zkfFHV4jXpPFQw0GAbJ--2" value="-double balance" style="text;align=left;verticalAlign=top;spacingLeft=4;spacingRight=4;overflow=hidden;rotatable=0;points=[[0,0.5],[1,0.5]];portConstraint=eastwest;rounded=0;shadow=0;html=0;" parent="zkfFHV4jXpPFQw0GAbJ--0" vertex="1">
          <mxGeometry y="52" width="160" height="26" as="geometry" />
        </mxCell>
        <mxCell id="zkfFHV4jXpPFQw0GAbJ--4" value="" style="line;html=1;strokeWidth=1;align=left;verticalAlign=middle;spacingTop=-1;spacingLeft=3;spacingRight=3;rotatable=0;labelPosition=right;points=[];portConstraint=eastwest;" parent="zkfFHV4jXpPFQw0GAbJ--0" vertex="1">
          <mxGeometry y="78" width="160" height="16" as="geometry" />
        </mxCell>
        <mxCell id="zkfFHV4jXpPFQw0GAbJ--5" value="+ BankAccountType()&#xa;+ setBlance()&#xa;+ abstract addBlance()" style="text;align=left;verticalAlign=top;spacingLeft=4;spacingRight=4;overflow=hidden;rotatable=0;points=[[0,0.5],[1,0.5]];portConstraint=eastwest;" parent="zkfFHV4jXpPFQw0GAbJ--0" vertex="1">
          <mxGeometry y="94" width="160" height="56" as="geometry" />
        </mxCell>
        <mxCell id="zkfFHV4jXpPFQw0GAbJ--6" value="CheckingAcc" style="swimlane;fontStyle=0;align=center;verticalAlign=top;childLayout=stackLayout;horizontal=1;startSize=26;horizontalStack=0;resizeParent=1;resizeLast=0;collapsible=1;marginBottom=0;rounded=0;shadow=0;strokeWidth=1;" parent="WIyWlLk6GJQsqaUBKTNV-1" vertex="1">
          <mxGeometry x="10" y="210" width="150" height="90" as="geometry">
            <mxRectangle x="130" y="380" width="160" height="26" as="alternateBounds" />
          </mxGeometry>
        </mxCell>
        <mxCell id="zkfFHV4jXpPFQw0GAbJ--9" value="" style="line;html=1;strokeWidth=1;align=left;verticalAlign=middle;spacingTop=-1;spacingLeft=3;spacingRight=3;rotatable=0;labelPosition=right;points=[];portConstraint=eastwest;" parent="zkfFHV4jXpPFQw0GAbJ--6" vertex="1">
          <mxGeometry y="26" width="150" height="8" as="geometry" />
        </mxCell>
        <mxCell id="3MJkp6Lzfv0LEk_2WVXy-1" value="+ addBlance(double b)&lt;br style=&quot;font-size: 13px; text-align: left;&quot;&gt;" style="text;html=1;strokeColor=none;fillColor=none;align=center;verticalAlign=middle;whiteSpace=wrap;rounded=0;" vertex="1" parent="zkfFHV4jXpPFQw0GAbJ--6">
          <mxGeometry y="34" width="150" height="30" as="geometry" />
        </mxCell>
        <mxCell id="zkfFHV4jXpPFQw0GAbJ--13" value="SavingAccount" style="swimlane;fontStyle=0;align=center;verticalAlign=top;childLayout=stackLayout;horizontal=1;startSize=26;horizontalStack=0;resizeParent=1;resizeLast=0;collapsible=1;marginBottom=0;rounded=0;shadow=0;strokeWidth=1;" parent="WIyWlLk6GJQsqaUBKTNV-1" vertex="1">
          <mxGeometry x="200" y="200" width="160" height="100" as="geometry">
            <mxRectangle x="340" y="380" width="170" height="26" as="alternateBounds" />
          </mxGeometry>
        </mxCell>
        <mxCell id="zkfFHV4jXpPFQw0GAbJ--15" value="" style="line;html=1;strokeWidth=1;align=left;verticalAlign=middle;spacingTop=-1;spacingLeft=3;spacingRight=3;rotatable=0;labelPosition=right;points=[];portConstraint=eastwest;" parent="zkfFHV4jXpPFQw0GAbJ--13" vertex="1">
          <mxGeometry y="26" width="160" height="8" as="geometry" />
        </mxCell>
        <mxCell id="3MJkp6Lzfv0LEk_2WVXy-0" value="&lt;font style=&quot;font-size: 13px;&quot;&gt;+ addBlance(double b)&lt;br&gt;+ intreseMonethly()&lt;/font&gt;" style="text;html=1;align=left;verticalAlign=middle;resizable=0;points=[];autosize=1;strokeColor=none;fillColor=none;" vertex="1" parent="zkfFHV4jXpPFQw0GAbJ--13">
          <mxGeometry y="34" width="160" height="40" as="geometry" />
        </mxCell>
        <mxCell id="3MJkp6Lzfv0LEk_2WVXy-2" value="BankAccount" style="swimlane;fontStyle=1;align=center;verticalAlign=top;childLayout=stackLayout;horizontal=1;startSize=26;horizontalStack=0;resizeParent=1;resizeParentMax=0;resizeLast=0;collapsible=1;marginBottom=0;whiteSpace=wrap;html=1;" vertex="1" parent="WIyWlLk6GJQsqaUBKTNV-1">
          <mxGeometry x="370" y="20" width="270" height="210" as="geometry" />
        </mxCell>
        <mxCell id="3MJkp6Lzfv0LEk_2WVXy-3" value="&amp;nbsp;- String userName, email, name password&lt;br&gt;&amp;nbsp;+&amp;nbsp;ArrayList&amp;lt;BankAccountType&amp;gt; userAccounts" style="text;strokeColor=none;fillColor=none;align=left;verticalAlign=top;spacingLeft=4;spacingRight=4;overflow=hidden;rotatable=0;points=[[0,0.5],[1,0.5]];portConstraint=eastwest;whiteSpace=wrap;html=1;" vertex="1" parent="3MJkp6Lzfv0LEk_2WVXy-2">
          <mxGeometry y="26" width="270" height="44" as="geometry" />
        </mxCell>
        <mxCell id="3MJkp6Lzfv0LEk_2WVXy-4" value="" style="line;strokeWidth=1;fillColor=none;align=left;verticalAlign=middle;spacingTop=-1;spacingLeft=3;spacingRight=3;rotatable=0;labelPosition=right;points=[];portConstraint=eastwest;strokeColor=inherit;" vertex="1" parent="3MJkp6Lzfv0LEk_2WVXy-2">
          <mxGeometry y="70" width="270" height="8" as="geometry" />
        </mxCell>
        <mxCell id="3MJkp6Lzfv0LEk_2WVXy-5" value="+ toString()&lt;br&gt;+&amp;nbsp;BankAccount()&lt;br&gt;+&amp;nbsp;resetPwd()&lt;br&gt;+&amp;nbsp;boolean checkPass()&lt;br&gt;+&amp;nbsp;withdraw(BankAccountType b, double ammount, String accounType)&lt;br&gt;+&amp;nbsp;addBlance(String accountType, double blance)" style="text;strokeColor=none;fillColor=none;align=left;verticalAlign=top;spacingLeft=4;spacingRight=4;overflow=hidden;rotatable=0;points=[[0,0.5],[1,0.5]];portConstraint=eastwest;whiteSpace=wrap;html=1;" vertex="1" parent="3MJkp6Lzfv0LEk_2WVXy-2">
          <mxGeometry y="78" width="270" height="132" as="geometry" />
        </mxCell>
        <mxCell id="3MJkp6Lzfv0LEk_2WVXy-6" value="" style="endArrow=none;html=1;edgeStyle=orthogonalEdgeStyle;rounded=0;exitX=1;exitY=0.5;exitDx=0;exitDy=0;entryX=0.5;entryY=0;entryDx=0;entryDy=0;" edge="1" parent="WIyWlLk6GJQsqaUBKTNV-1" source="zkfFHV4jXpPFQw0GAbJ--5" target="zkfFHV4jXpPFQw0GAbJ--13">
          <mxGeometry relative="1" as="geometry">
            <mxPoint x="40" y="270" as="sourcePoint" />
            <mxPoint x="200" y="270" as="targetPoint" />
          </mxGeometry>
        </mxCell>
        <mxCell id="3MJkp6Lzfv0LEk_2WVXy-7" value="parent" style="edgeLabel;resizable=0;html=1;align=left;verticalAlign=bottom;" connectable="0" vertex="1" parent="3MJkp6Lzfv0LEk_2WVXy-6">
          <mxGeometry x="-1" relative="1" as="geometry" />
        </mxCell>
        <mxCell id="3MJkp6Lzfv0LEk_2WVXy-8" value="child" style="edgeLabel;resizable=0;html=1;align=right;verticalAlign=bottom;" connectable="0" vertex="1" parent="3MJkp6Lzfv0LEk_2WVXy-6">
          <mxGeometry x="1" relative="1" as="geometry" />
        </mxCell>
        <mxCell id="3MJkp6Lzfv0LEk_2WVXy-9" value="" style="endArrow=none;html=1;edgeStyle=orthogonalEdgeStyle;rounded=0;exitX=0;exitY=0.5;exitDx=0;exitDy=0;entryX=0.453;entryY=-0.022;entryDx=0;entryDy=0;entryPerimeter=0;" edge="1" parent="WIyWlLk6GJQsqaUBKTNV-1" source="zkfFHV4jXpPFQw0GAbJ--5" target="zkfFHV4jXpPFQw0GAbJ--6">
          <mxGeometry relative="1" as="geometry">
            <mxPoint x="50" y="170" as="sourcePoint" />
            <mxPoint x="80" y="288" as="targetPoint" />
          </mxGeometry>
        </mxCell>
        <mxCell id="3MJkp6Lzfv0LEk_2WVXy-10" value="parent" style="edgeLabel;resizable=0;html=1;align=left;verticalAlign=bottom;" connectable="0" vertex="1" parent="3MJkp6Lzfv0LEk_2WVXy-9">
          <mxGeometry x="-1" relative="1" as="geometry">
            <mxPoint x="-40" y="-2" as="offset" />
          </mxGeometry>
        </mxCell>
        <mxCell id="3MJkp6Lzfv0LEk_2WVXy-11" value="child" style="edgeLabel;resizable=0;html=1;align=right;verticalAlign=bottom;" connectable="0" vertex="1" parent="3MJkp6Lzfv0LEk_2WVXy-9">
          <mxGeometry x="1" relative="1" as="geometry" />
        </mxCell>
        <mxCell id="3MJkp6Lzfv0LEk_2WVXy-12" value="Relation" style="endArrow=open;html=1;endSize=12;startArrow=diamondThin;startSize=14;startFill=0;edgeStyle=orthogonalEdgeStyle;rounded=0;entryX=-0.007;entryY=-0.045;entryDx=0;entryDy=0;entryPerimeter=0;exitX=1.013;exitY=0.1;exitDx=0;exitDy=0;exitPerimeter=0;" edge="1" parent="WIyWlLk6GJQsqaUBKTNV-1" source="zkfFHV4jXpPFQw0GAbJ--0" target="3MJkp6Lzfv0LEk_2WVXy-3">
          <mxGeometry x="0.101" y="11" relative="1" as="geometry">
            <mxPoint x="190" y="50" as="sourcePoint" />
            <mxPoint x="350" y="50" as="targetPoint" />
            <mxPoint x="-10" y="7" as="offset" />
          </mxGeometry>
        </mxCell>
        <mxCell id="3MJkp6Lzfv0LEk_2WVXy-13" value="0..n" style="edgeLabel;resizable=0;html=1;align=left;verticalAlign=top;" connectable="0" vertex="1" parent="3MJkp6Lzfv0LEk_2WVXy-12">
          <mxGeometry x="-1" relative="1" as="geometry" />
        </mxCell>
        <mxCell id="3MJkp6Lzfv0LEk_2WVXy-14" value="1" style="edgeLabel;resizable=0;html=1;align=right;verticalAlign=top;" connectable="0" vertex="1" parent="3MJkp6Lzfv0LEk_2WVXy-12">
          <mxGeometry x="1" relative="1" as="geometry" />
        </mxCell>
        <mxCell id="3MJkp6Lzfv0LEk_2WVXy-15" value="BankCreateAccountDB" style="swimlane;fontStyle=1;align=center;verticalAlign=top;childLayout=stackLayout;horizontal=1;startSize=26;horizontalStack=0;resizeParent=1;resizeParentMax=0;resizeLast=0;collapsible=1;marginBottom=0;whiteSpace=wrap;html=1;" vertex="1" parent="WIyWlLk6GJQsqaUBKTNV-1">
          <mxGeometry x="660" y="65" width="160" height="120" as="geometry" />
        </mxCell>
        <mxCell id="3MJkp6Lzfv0LEk_2WVXy-16" value="+ String FileName" style="text;strokeColor=none;fillColor=none;align=left;verticalAlign=top;spacingLeft=4;spacingRight=4;overflow=hidden;rotatable=0;points=[[0,0.5],[1,0.5]];portConstraint=eastwest;whiteSpace=wrap;html=1;" vertex="1" parent="3MJkp6Lzfv0LEk_2WVXy-15">
          <mxGeometry y="26" width="160" height="26" as="geometry" />
        </mxCell>
        <mxCell id="3MJkp6Lzfv0LEk_2WVXy-17" value="" style="line;strokeWidth=1;fillColor=none;align=left;verticalAlign=middle;spacingTop=-1;spacingLeft=3;spacingRight=3;rotatable=0;labelPosition=right;points=[];portConstraint=eastwest;strokeColor=inherit;" vertex="1" parent="3MJkp6Lzfv0LEk_2WVXy-15">
          <mxGeometry y="52" width="160" height="8" as="geometry" />
        </mxCell>
        <mxCell id="3MJkp6Lzfv0LEk_2WVXy-18" value="+&amp;nbsp;createFile()&lt;br&gt;+&amp;nbsp;addUser(String val)&lt;br&gt;+&amp;nbsp;resetFile()" style="text;strokeColor=none;fillColor=none;align=left;verticalAlign=top;spacingLeft=4;spacingRight=4;overflow=hidden;rotatable=0;points=[[0,0.5],[1,0.5]];portConstraint=eastwest;whiteSpace=wrap;html=1;" vertex="1" parent="3MJkp6Lzfv0LEk_2WVXy-15">
          <mxGeometry y="60" width="160" height="60" as="geometry" />
        </mxCell>
        <mxCell id="3MJkp6Lzfv0LEk_2WVXy-19" value="BankMain" style="swimlane;fontStyle=1;align=center;verticalAlign=top;childLayout=stackLayout;horizontal=1;startSize=26;horizontalStack=0;resizeParent=1;resizeParentMax=0;resizeLast=0;collapsible=1;marginBottom=0;whiteSpace=wrap;html=1;" vertex="1" parent="WIyWlLk6GJQsqaUBKTNV-1">
          <mxGeometry x="380" y="255" width="280" height="330" as="geometry" />
        </mxCell>
        <mxCell id="3MJkp6Lzfv0LEk_2WVXy-20" value="&lt;div&gt;+ ArrayList&amp;lt;BankAccount&amp;gt; bankDB&amp;nbsp;&lt;/div&gt;&lt;div&gt;&lt;span style=&quot;background-color: initial;&quot;&gt;+ ArrayList&amp;lt;String&amp;gt; userNameDB&amp;nbsp;&lt;/span&gt;&lt;/div&gt;&lt;div&gt;&lt;span style=&quot;background-color: initial;&quot;&gt;-&amp;nbsp;&lt;/span&gt;&lt;span style=&quot;background-color: initial;&quot;&gt;String bankName, fileName&lt;/span&gt;&lt;/div&gt;&lt;div&gt;+ BankCreateAccountDB mainDB&lt;/div&gt;" style="text;strokeColor=none;fillColor=none;align=left;verticalAlign=top;spacingLeft=4;spacingRight=4;overflow=hidden;rotatable=0;points=[[0,0.5],[1,0.5]];portConstraint=eastwest;whiteSpace=wrap;html=1;" vertex="1" parent="3MJkp6Lzfv0LEk_2WVXy-19">
          <mxGeometry y="26" width="280" height="84" as="geometry" />
        </mxCell>
        <mxCell id="3MJkp6Lzfv0LEk_2WVXy-21" value="" style="line;strokeWidth=1;fillColor=none;align=left;verticalAlign=middle;spacingTop=-1;spacingLeft=3;spacingRight=3;rotatable=0;labelPosition=right;points=[];portConstraint=eastwest;strokeColor=inherit;" vertex="1" parent="3MJkp6Lzfv0LEk_2WVXy-19">
          <mxGeometry y="110" width="280" height="8" as="geometry" />
        </mxCell>
        <mxCell id="3MJkp6Lzfv0LEk_2WVXy-22" value="+&amp;nbsp;BankMain()&lt;br&gt;+&amp;nbsp;run()&lt;br&gt;+&amp;nbsp;start()&lt;br&gt;+&amp;nbsp;boolean addUser()&lt;br&gt;+&amp;nbsp;cleanUp()&lt;br&gt;+&amp;nbsp;menu()&lt;br&gt;+&amp;nbsp;BankAccount findUserAccount(String uName)&lt;br&gt;+&amp;nbsp;checkYourBalance()&lt;br&gt;+&amp;nbsp;openAnotherAccount()&lt;br&gt;+&amp;nbsp;transfer()&lt;br&gt;+&amp;nbsp;addBlanceToYourAccount()&lt;br&gt;+&amp;nbsp;createNewAcc()&lt;br&gt;+&amp;nbsp;vendorChargeUser()" style="text;strokeColor=none;fillColor=none;align=left;verticalAlign=top;spacingLeft=4;spacingRight=4;overflow=hidden;rotatable=0;points=[[0,0.5],[1,0.5]];portConstraint=eastwest;whiteSpace=wrap;html=1;" vertex="1" parent="3MJkp6Lzfv0LEk_2WVXy-19">
          <mxGeometry y="118" width="280" height="212" as="geometry" />
        </mxCell>
        <mxCell id="3MJkp6Lzfv0LEk_2WVXy-23" value="Banking" style="swimlane;fontStyle=1;align=center;verticalAlign=top;childLayout=stackLayout;horizontal=1;startSize=26;horizontalStack=0;resizeParent=1;resizeParentMax=0;resizeLast=0;collapsible=1;marginBottom=0;whiteSpace=wrap;html=1;" vertex="1" parent="WIyWlLk6GJQsqaUBKTNV-1">
          <mxGeometry x="20" y="330" width="340" height="188" as="geometry" />
        </mxCell>
        <mxCell id="3MJkp6Lzfv0LEk_2WVXy-24" value="+&amp;nbsp;BankMain bk1&lt;br&gt;+&amp;nbsp;BankMain bk2&lt;br&gt;+&amp;nbsp;BankMain bk3&lt;br&gt;-&amp;nbsp;ArrayList&amp;lt;Vendor&amp;gt; currentVendors" style="text;strokeColor=none;fillColor=none;align=left;verticalAlign=top;spacingLeft=4;spacingRight=4;overflow=hidden;rotatable=0;points=[[0,0.5],[1,0.5]];portConstraint=eastwest;whiteSpace=wrap;html=1;" vertex="1" parent="3MJkp6Lzfv0LEk_2WVXy-23">
          <mxGeometry y="26" width="340" height="64" as="geometry" />
        </mxCell>
        <mxCell id="3MJkp6Lzfv0LEk_2WVXy-25" value="" style="line;strokeWidth=1;fillColor=none;align=left;verticalAlign=middle;spacingTop=-1;spacingLeft=3;spacingRight=3;rotatable=0;labelPosition=right;points=[];portConstraint=eastwest;strokeColor=inherit;" vertex="1" parent="3MJkp6Lzfv0LEk_2WVXy-23">
          <mxGeometry y="90" width="340" height="8" as="geometry" />
        </mxCell>
        <mxCell id="3MJkp6Lzfv0LEk_2WVXy-26" value="+&amp;nbsp;Banking()&amp;nbsp;&lt;br&gt;-&amp;nbsp;Vendor getVendorByName(String vendorName)&lt;br&gt;-&amp;nbsp;boolean searchVendor(String vendorName)&lt;br&gt;+&amp;nbsp;boolean chargeUser(String vendorName, double ammount)" style="text;strokeColor=none;fillColor=none;align=left;verticalAlign=top;spacingLeft=4;spacingRight=4;overflow=hidden;rotatable=0;points=[[0,0.5],[1,0.5]];portConstraint=eastwest;whiteSpace=wrap;html=1;" vertex="1" parent="3MJkp6Lzfv0LEk_2WVXy-23">
          <mxGeometry y="98" width="340" height="90" as="geometry" />
        </mxCell>
        <mxCell id="3MJkp6Lzfv0LEk_2WVXy-28" value="Vendor" style="swimlane;fontStyle=1;align=center;verticalAlign=top;childLayout=stackLayout;horizontal=1;startSize=26;horizontalStack=0;resizeParent=1;resizeParentMax=0;resizeLast=0;collapsible=1;marginBottom=0;whiteSpace=wrap;html=1;" vertex="1" parent="WIyWlLk6GJQsqaUBKTNV-1">
          <mxGeometry x="30" y="550" width="160" height="94" as="geometry" />
        </mxCell>
        <mxCell id="3MJkp6Lzfv0LEk_2WVXy-29" value="+&amp;nbsp;String vendorsName&amp;nbsp;&lt;br&gt;+&amp;nbsp;double ammount" style="text;strokeColor=none;fillColor=none;align=left;verticalAlign=top;spacingLeft=4;spacingRight=4;overflow=hidden;rotatable=0;points=[[0,0.5],[1,0.5]];portConstraint=eastwest;whiteSpace=wrap;html=1;" vertex="1" parent="3MJkp6Lzfv0LEk_2WVXy-28">
          <mxGeometry y="26" width="160" height="34" as="geometry" />
        </mxCell>
        <mxCell id="3MJkp6Lzfv0LEk_2WVXy-30" value="" style="line;strokeWidth=1;fillColor=none;align=left;verticalAlign=middle;spacingTop=-1;spacingLeft=3;spacingRight=3;rotatable=0;labelPosition=right;points=[];portConstraint=eastwest;strokeColor=inherit;" vertex="1" parent="3MJkp6Lzfv0LEk_2WVXy-28">
          <mxGeometry y="60" width="160" height="8" as="geometry" />
        </mxCell>
        <mxCell id="3MJkp6Lzfv0LEk_2WVXy-31" value="+&amp;nbsp;Vendor()" style="text;strokeColor=none;fillColor=none;align=left;verticalAlign=top;spacingLeft=4;spacingRight=4;overflow=hidden;rotatable=0;points=[[0,0.5],[1,0.5]];portConstraint=eastwest;whiteSpace=wrap;html=1;" vertex="1" parent="3MJkp6Lzfv0LEk_2WVXy-28">
          <mxGeometry y="68" width="160" height="26" as="geometry" />
        </mxCell>
        <mxCell id="3MJkp6Lzfv0LEk_2WVXy-33" value="Use" style="endArrow=open;endSize=12;dashed=1;html=1;rounded=0;exitX=0.529;exitY=1.033;exitDx=0;exitDy=0;exitPerimeter=0;entryX=0.75;entryY=0;entryDx=0;entryDy=0;" edge="1" parent="WIyWlLk6GJQsqaUBKTNV-1" source="3MJkp6Lzfv0LEk_2WVXy-26" target="3MJkp6Lzfv0LEk_2WVXy-28">
          <mxGeometry width="160" relative="1" as="geometry">
            <mxPoint x="230" y="630" as="sourcePoint" />
            <mxPoint x="390" y="630" as="targetPoint" />
          </mxGeometry>
        </mxCell>
        <mxCell id="3MJkp6Lzfv0LEk_2WVXy-34" value="Use" style="endArrow=open;endSize=12;dashed=1;html=1;rounded=0;exitX=1;exitY=0.5;exitDx=0;exitDy=0;entryX=0.625;entryY=1.083;entryDx=0;entryDy=0;entryPerimeter=0;" edge="1" parent="WIyWlLk6GJQsqaUBKTNV-1" source="3MJkp6Lzfv0LEk_2WVXy-20" target="3MJkp6Lzfv0LEk_2WVXy-18">
          <mxGeometry width="160" relative="1" as="geometry">
            <mxPoint x="240" y="630" as="sourcePoint" />
            <mxPoint x="400" y="630" as="targetPoint" />
          </mxGeometry>
        </mxCell>
        <mxCell id="3MJkp6Lzfv0LEk_2WVXy-35" value="Use" style="endArrow=open;endSize=12;dashed=1;html=1;rounded=0;exitX=1;exitY=0;exitDx=0;exitDy=0;entryX=1;entryY=0.5;entryDx=0;entryDy=0;" edge="1" parent="WIyWlLk6GJQsqaUBKTNV-1" source="3MJkp6Lzfv0LEk_2WVXy-19" target="3MJkp6Lzfv0LEk_2WVXy-5">
          <mxGeometry width="160" relative="1" as="geometry">
            <mxPoint x="440" y="610" as="sourcePoint" />
            <mxPoint x="600" y="610" as="targetPoint" />
          </mxGeometry>
        </mxCell>
        <mxCell id="3MJkp6Lzfv0LEk_2WVXy-36" value="Use" style="endArrow=open;endSize=12;dashed=1;html=1;rounded=0;exitX=0.765;exitY=1.022;exitDx=0;exitDy=0;exitPerimeter=0;entryX=0.007;entryY=0.925;entryDx=0;entryDy=0;entryPerimeter=0;" edge="1" parent="WIyWlLk6GJQsqaUBKTNV-1" source="3MJkp6Lzfv0LEk_2WVXy-26" target="3MJkp6Lzfv0LEk_2WVXy-22">
          <mxGeometry width="160" relative="1" as="geometry">
            <mxPoint x="254" y="710" as="sourcePoint" />
            <mxPoint x="414" y="710" as="targetPoint" />
          </mxGeometry>
        </mxCell>
      </root>
    </mxGraphModel>
  </diagram>
</mxfile>
